# This file uses centimeters as units for non-parametric coordinates.

mtllib Cactus_OBJ1.mtl
g default
v -4.525073 5.965543 11.363092
v 6.520296 5.965543 11.363092
v -1.272357 70.014149 8.335971
v 3.636669 70.014149 8.335971
v -1.272357 70.014149 3.344846
v 3.636669 70.014149 3.344846
v -4.525073 5.965543 0.317722
v 6.520296 5.965543 0.317722
v 5.554347 62.009639 9.948626
v -2.300790 62.009639 9.948626
v -2.300790 62.009639 1.732190
v 5.554347 62.009639 1.732190
v 5.651051 43.188161 9.948626
v -2.565385 43.188161 9.948626
v -2.565385 43.188161 1.732190
v 5.651051 43.188161 1.732190
v 6.591642 30.780620 9.948626
v -0.866821 28.573566 9.948626
v -0.866821 28.573566 1.732190
v 6.591642 30.780620 1.732190
v 5.105830 18.373083 9.948625
v -3.110606 18.373083 9.948625
v -3.110606 18.373083 1.732189
v 5.105830 18.373083 1.732189
v -1.212649 31.549094 8.608611
v -1.212649 31.549094 3.072204
v -2.219557 40.212625 8.608611
v -2.219557 40.212625 3.072204
v -10.361568 33.897092 8.608611
v -10.361568 33.897092 3.072204
v -10.991158 40.212625 8.608611
v -10.991158 40.212625 3.072204
v -16.602715 40.891704 8.608611
v -16.602715 40.891704 3.072204
v -12.194921 43.450374 8.608611
v -12.194921 43.450374 3.072204
v -17.519026 52.083367 8.608611
v -17.519026 52.083367 3.072204
v -14.616180 53.444053 8.608611
v -14.616180 53.444053 3.072204
v 3.894048 51.704536 9.948626
v -3.734323 51.704536 9.948626
v -3.734323 51.704536 1.732190
v 3.894048 51.704536 1.732190
v 5.448630 44.169304 2.629730
v 5.448630 44.169304 9.051086
v 4.096468 50.723385 2.629730
v 4.096468 50.723385 9.051086
v 17.519026 49.366876 2.629730
v 17.519026 49.366876 9.051086
v 11.930771 53.048669 2.629730
v 11.930771 53.048669 9.051086
v 15.748454 64.158029 2.629730
v 15.748454 64.158029 9.051086
v 13.701344 63.735891 2.629730
v 13.701344 63.735891 9.051086
v -1.404810 41.229451 1.732190
v 4.718227 41.229451 1.732190
v 5.419171 32.440582 1.732190
v -0.139010 30.877220 1.732190
v -1.404810 42.730612 -5.189218
v 4.718227 42.730612 -5.189218
v 5.419171 37.602279 -5.189218
v -0.139010 36.690061 -5.189218
v -1.235749 46.235671 -8.050685
v 4.583898 46.235671 -8.050685
v 5.250110 42.157782 -10.603242
v -0.032668 41.432428 -11.057284
v 0.919811 49.124344 -8.737475
v 2.871167 49.124344 -8.737475
v 3.094551 50.176813 -10.966588
v 1.323210 50.364028 -11.363092
vt 0.522307 0.131904
vt 0.627959 0.002000
vt 0.644723 0.045391
vt 0.555885 0.159268
vt 0.193313 0.641428
vt 0.096204 0.634753
vt 0.107967 0.526584
vt 0.218903 0.532101
vt 0.507198 0.293079
vt 0.403195 0.346608
vt 0.414519 0.322611
vt 0.484432 0.258213
vt 0.419362 0.166196
vt 0.385946 0.195586
vt 0.215549 0.665051
vt 0.136281 0.784689
vt 0.121670 0.730805
vt 0.256359 0.520906
vt 0.241028 0.462692
vt 0.288886 0.426562
vt 0.129412 0.442397
vt 0.147566 0.476808
vt 0.264500 0.691166
vt 0.174926 0.812950
vt 0.176344 0.773597
vt 0.248302 0.668033
vt 0.304114 0.540733
vt 0.280960 0.543853
vt 0.310067 0.409641
vt 0.327074 0.380980
vt 0.002000 0.240599
vt 0.124911 0.221616
vt 0.150457 0.260554
vt 0.005772 0.285159
vt 0.597893 0.155803
vt 0.680643 0.037287
vt 0.694147 0.065752
vt 0.627730 0.171810
vt 0.897590 0.242627
vt 0.997513 0.253044
vt 0.998000 0.309025
vt 0.867218 0.296749
vt 0.554036 0.671206
vt 0.514952 0.658712
vt 0.523071 0.612443
vt 0.562490 0.614820
vt 0.353868 0.198940
vt 0.357987 0.376210
vt 0.334322 0.204094
vt 0.518469 0.333516
vt 0.592534 0.190834
vt 0.544427 0.311629
vt 0.613160 0.175818
vt 0.306723 0.571155
vt 0.279814 0.672296
vt 0.564096 0.355348
vt 0.573511 0.333722
vt 0.744923 0.173886
vt 0.753473 0.285861
vt 0.755836 0.155484
vt 0.638947 0.452491
vt 0.771369 0.297242
vt 0.797720 0.401783
vt 0.863226 0.150552
vt 0.871058 0.255451
vt 0.781457 0.144992
vt 0.801049 0.295516
vt 0.823291 0.401150
vt 0.897318 0.145515
vt 0.838171 0.116906
vt 0.880963 0.396972
vt 0.138992 0.413896
vt 0.316479 0.362854
vt 0.329051 0.221139
vt 0.297375 0.403071
vt 0.155297 0.411914
vt 0.332581 0.192911
vt 0.332375 0.210207
vt 0.142387 0.222777
vt 0.177467 0.111580
vt 0.205045 0.286423
vt 0.100048 0.330525
vt 0.247193 0.144964
vt 0.157178 0.098477
vt 0.068311 0.299026
vt 0.203235 0.100885
vt 0.333603 0.399483
vt 0.309574 0.520715
vt 0.377053 0.376062
vt 0.503856 0.343372
vt 0.541996 0.353030
vt 0.437728 0.511270
vt 0.375419 0.618008
vt 0.451419 0.499676
vt 0.557841 0.470537
vt 0.588654 0.472229
vt 0.469093 0.563175
vt 0.418898 0.650850
vt 0.498645 0.586706
vt 0.578341 0.589704
vt 0.600318 0.534021
vt 0.466845 0.601768
vt 0.450556 0.628670
vt 0.621908 0.589974
vn 0.000000 0.113267 0.993565
vn 0.000000 0.113267 0.993565
vn 0.000000 0.063807 0.997962
vn 0.000000 0.097013 0.995283
vn 0.000000 1.000000 0.000000
vn 0.000000 1.000000 0.000000
vn 0.000000 1.000000 0.000000
vn 0.000000 1.000000 0.000000
vn -0.000000 0.097013 -0.995283
vn -0.000000 0.063807 -0.997962
vn 0.000000 0.113267 -0.993565
vn 0.000000 0.113267 -0.993565
vn 0.993565 0.113267 0.000000
vn 0.993565 0.113267 0.000000
vn 0.999694 0.024725 0.000000
vn 0.999694 0.024725 0.000000
vn -0.993565 0.113267 0.000000
vn -0.993565 0.113267 0.000000
vn -0.988980 0.148046 0.000000
vn -0.988980 0.148046 0.000000
vn 0.000000 0.044470 0.999011
vn 0.000000 0.087058 0.996203
vn 0.000000 0.197500 0.980303
vn 0.000000 0.197500 0.980303
vn -0.990780 0.135478 0.000000
vn -0.990780 0.135478 0.000000
vn -0.991847 0.127434 0.000000
vn -0.991847 0.127434 0.000000
vn 0.000000 0.197500 -0.980303
vn 0.000000 0.197500 -0.980303
vn 0.000000 0.087058 -0.996203
vn 0.000000 0.044470 -0.999011
vn 0.998591 -0.053072 0.000000
vn 0.998591 -0.053072 0.000000
vn 0.972481 0.232982 0.000000
vn 0.972481 0.232982 0.000000
vn -0.000000 0.000000 1.000000
vn -0.000000 0.000000 1.000000
vn 0.000000 0.000000 1.000000
vn 0.000000 0.000000 1.000000
vn -0.991245 -0.132037 -0.000000
vn -0.991245 -0.132037 0.000000
vn -0.999901 0.014057 0.000000
vn -0.999901 0.014057 0.000000
vn 0.000000 0.000000 -1.000000
vn 0.000000 0.000000 -1.000000
vn -0.000000 0.000000 -1.000000
vn -0.000000 0.000000 -1.000000
vn -0.201962 0.979393 0.000000
vn -0.201962 0.979393 0.000000
vn -0.201962 0.979393 0.000000
vn -0.201962 0.979393 0.000000
vn 0.000000 -0.000000 1.000000
vn -0.000000 -0.000000 1.000000
vn -0.424428 0.905462 0.000000
vn -0.424428 0.905462 0.000000
vn -0.424428 0.905462 0.000000
vn -0.424428 0.905462 0.000000
vn 0.000002 0.904274 0.426952
vn 0.000002 0.904274 0.426952
vn 0.000002 0.904274 0.426952
vn 0.000002 0.904274 0.426952
vn 0.999759 -0.021966 0.000000
vn 0.999759 -0.021966 0.000000
vn 0.996490 0.083709 0.000000
vn 0.996490 0.083709 -0.000000
vn -0.986803 0.161925 0.000000
vn -0.986803 0.161925 -0.000000
vn -0.000000 0.000000 -1.000000
vn -0.000000 0.000000 -1.000000
vn -0.993314 -0.115447 0.000000
vn -0.993314 -0.115447 -0.000000
vn -0.993314 -0.115447 0.000000
vn -0.993314 -0.115447 -0.000000
vn -0.248586 -0.968610 0.000000
vn -0.248586 -0.968610 0.000000
vn -0.248586 -0.968610 0.000000
vn -0.248586 -0.968610 0.000000
vn -0.000000 0.000000 1.000000
vn -0.000000 0.000000 1.000000
vn -0.000000 0.000000 1.000000
vn -0.000000 0.000000 1.000000
vn 0.000000 1.000000 0.000000
vn 0.000000 1.000000 0.000000
vn 0.000000 1.000000 0.000000
vn 0.000000 1.000000 0.000000
vn 0.000000 0.000000 -1.000000
vn 0.000000 0.000000 -1.000000
vn 0.000000 0.000000 -1.000000
vn 0.000000 0.000000 -1.000000
vn -0.746152 -0.665776 0.000000
vn -0.746152 -0.665776 0.000000
vn -0.746152 -0.665776 0.000000
vn -0.746152 -0.665776 0.000000
vn 0.000000 0.000000 1.000000
vn 0.000000 0.000000 1.000000
vn 0.000000 0.000000 1.000000
vn 0.000000 0.000000 1.000000
vn 0.937315 0.348484 0.000000
vn 0.937315 0.348484 0.000000
vn 0.937315 0.348484 0.000000
vn 0.937315 0.348484 0.000000
vn 0.000000 0.000000 -1.000000
vn 0.000000 0.000000 -1.000000
vn 0.000000 0.000000 -1.000000
vn 0.000000 0.000000 -1.000000
vn -0.996665 -0.081601 0.000000
vn -0.996665 -0.081601 0.000000
vn -0.996665 -0.081601 0.000000
vn -0.996665 -0.081601 0.000000
vn 0.000000 -0.000000 1.000000
vn 0.000000 -0.000000 1.000000
vn 0.000000 -0.000000 1.000000
vn 0.000000 -0.000000 1.000000
vn 0.971882 0.235467 0.000000
vn 0.971882 0.235467 0.000000
vn 0.971882 0.235467 0.000000
vn 0.971882 0.235467 0.000000
vn 0.000000 0.000000 -1.000000
vn 0.000000 0.000000 -1.000000
vn 0.000000 0.000000 -1.000000
vn 0.000000 0.000000 -1.000000
vn 0.991182 -0.132505 -0.000000
vn 0.991182 -0.132505 0.000000
vn 0.979374 0.202055 0.000000
vn 0.979374 0.202055 -0.000000
vn 0.979374 0.202054 0.000000
vn 0.979374 0.202054 -0.000000
vn 0.395497 -0.918467 0.000000
vn 0.395497 -0.918467 0.000000
vn 0.395497 -0.918467 0.000000
vn 0.395497 -0.918467 0.000000
vn -0.000000 0.000000 -1.000000
vn -0.000000 0.000000 -1.000000
vn -0.000000 0.000000 -1.000000
vn -0.000000 0.000000 -1.000000
vn -0.284539 0.958664 0.000000
vn -0.284539 0.958664 0.000000
vn -0.284539 0.958664 0.000000
vn -0.284539 0.958664 0.000000
vn -0.000000 -0.000000 1.000000
vn -0.000000 -0.000000 1.000000
vn -0.000000 -0.000000 1.000000
vn -0.000000 -0.000000 1.000000
vn 0.992911 0.118856 0.000000
vn 0.992911 0.118856 0.000000
vn 0.992911 0.118856 0.000000
vn 0.992911 0.118856 0.000000
vn 0.000000 0.000000 -1.000000
vn 0.000000 0.000000 -1.000000
vn 0.000000 0.000000 -1.000000
vn 0.000000 0.000000 -1.000000
vn -0.986553 0.163444 0.000000
vn -0.986553 0.163444 0.000000
vn -0.986553 0.163444 0.000000
vn -0.986553 0.163444 0.000000
vn 0.000000 0.000000 1.000000
vn 0.000000 0.000000 1.000000
vn 0.000000 0.000000 1.000000
vn 0.000000 0.000000 1.000000
vn -0.000000 0.000000 -1.000000
vn -0.000000 0.000000 -1.000000
vn -0.000000 0.000000 -1.000000
vn -0.000000 0.000000 -1.000000
vn 0.000000 0.977279 0.211959
vn 0.000000 0.977279 0.211959
vn 0.000000 0.977279 0.211959
vn 0.000000 0.977279 0.211959
vn 0.993809 0.100107 0.048184
vn 0.993809 0.100107 0.048184
vn 0.993809 0.100107 0.048184
vn 0.993809 0.100107 0.048184
vn 0.171911 -0.771949 -0.611998
vn 0.171911 -0.771949 -0.611998
vn 0.171911 -0.771949 -0.611998
vn 0.171911 -0.771949 -0.611998
vn -0.985086 -0.152131 -0.080380
vn -0.985086 -0.152131 -0.080380
vn -0.985086 -0.152131 -0.080380
vn -0.985086 -0.152131 -0.080380
vn 0.000000 0.632402 0.774640
vn 0.000000 0.632402 0.774640
vn 0.000000 0.632402 0.774640
vn 0.000000 0.632402 0.774640
vn 0.988774 0.123527 0.084069
vn 0.988774 0.123527 0.084069
vn 0.988774 0.123527 0.084069
vn 0.988774 0.123527 0.084069
vn 0.141721 -0.763528 -0.630032
vn 0.141721 -0.763528 -0.630032
vn 0.141721 -0.763528 -0.630032
vn 0.141721 -0.763528 -0.630032
vn -0.967506 -0.167848 -0.189101
vn -0.967506 -0.167848 -0.189101
vn -0.967506 -0.167848 -0.189101
vn -0.967506 -0.167848 -0.189101
vn 0.000000 0.231305 0.972881
vn 0.000000 0.231305 0.972881
vn 0.000000 0.231305 0.972881
vn 0.000000 0.231305 0.972881
vn 0.942969 0.331132 -0.034078
vn 0.942969 0.331132 -0.034078
vn 0.942969 0.331132 -0.034078
vn 0.942969 0.331132 -0.034078
vn 0.122151 -0.033396 -0.991949
vn 0.122151 -0.033396 -0.991949
vn 0.122151 -0.033396 -0.991949
vn 0.122151 -0.033396 -0.991950
vn -0.887656 0.230203 -0.398839
vn -0.887656 0.230203 -0.398839
vn -0.887657 0.230203 -0.398839
vn -0.887657 0.230203 -0.398839
s 1
g pCube1
usemtl initialShadingGroup
f 1/1/1 2/2/2 21/3/3 22/4/4
s off
f 3/5/5 4/6/6 6/7/7 5/8/8
s 2
f 23/9/9 24/10/10 8/11/11 7/12/12
s 3
f 2/13/13 8/11/14 24/10/15 21/14/16
s 4
f 7/12/17 1/1/18 22/4/19 23/9/20
s 1
f 10/15/21 9/16/22 4/17/23 3/5/24
s 4
f 11/18/25 10/15/26 3/5/27 5/8/28
s 2
f 5/8/29 6/19/30 12/20/31 11/18/32
s 3
f 9/21/33 12/20/34 6/19/35 4/22/36
s 1
f 14/23/37 13/24/38 41/25/39 42/26/40
s 4
f 15/27/41 14/23/42 42/26/43 43/28/44
s 2
f 43/28/45 44/29/46 16/30/47 15/27/48
s off
f 54/31/49 53/32/50 55/33/51 56/34/52
s 1
f 18/35/53 17/36/54 13/37/38 14/38/37
s off
f 38/39/55 37/40/56 39/41/57 40/42/58
f 69/43/59 70/44/60 71/45/61 72/46/62
s 3
f 17/47/63 20/48/64 16/30/65 13/49/66
s 1
f 22/4/4 21/3/3 17/36/54 18/35/53
s 4
f 23/9/20 22/4/19 18/35/67 19/50/68
s 2
f 19/50/69 20/48/70 24/10/10 23/9/9
s 3
f 21/14/16 24/10/15 20/48/64 17/47/63
s 4
f 19/50/68 18/35/67 25/51/71 26/52/72
f 18/35/67 14/38/42 27/53/73 25/51/71
f 14/23/42 15/27/41 28/54/74 27/55/73
f 15/56/41 19/50/68 26/52/72 28/57/74
s off
f 26/52/75 25/51/76 29/58/77 30/59/78
f 25/51/79 27/53/80 31/60/81 29/58/82
f 27/61/83 28/57/84 32/62/85 31/63/86
f 28/57/87 26/52/88 30/59/89 32/62/90
f 30/59/91 29/58/92 33/64/93 34/65/94
f 29/58/95 31/60/96 35/66/97 33/64/98
f 31/63/99 32/62/100 36/67/101 35/68/102
f 32/62/103 30/59/104 34/65/105 36/67/106
f 34/65/107 33/64/108 37/69/109 38/39/110
f 33/64/111 35/66/112 39/70/113 37/69/114
f 35/68/115 36/67/116 40/42/117 39/71/118
f 36/67/119 34/65/120 38/39/121 40/42/122
s 1
f 42/26/40 41/25/39 9/16/22 10/15/21
s 4
f 43/28/44 42/26/43 10/15/26 11/18/25
s 2
f 11/18/32 12/20/31 44/29/46 43/28/45
s 3
f 41/72/123 44/29/124 12/20/34 9/21/33
f 13/49/66 16/30/65 45/73/125 46/74/126
f 16/30/65 44/29/124 47/75/127 45/73/125
f 44/29/124 41/72/123 48/76/128 47/75/127
f 41/77/123 13/49/66 46/74/126 48/78/128
s off
f 46/74/129 45/73/130 49/79/131 50/80/132
f 45/73/133 47/75/134 51/81/135 49/79/136
f 47/75/137 48/76/138 52/82/139 51/81/140
f 48/78/141 46/74/142 50/80/143 52/83/144
f 50/80/145 49/79/146 53/32/147 54/84/148
f 49/79/149 51/81/150 55/33/151 53/32/152
f 51/81/153 52/82/154 56/85/155 55/33/156
f 52/83/157 50/80/158 54/84/159 56/86/160
s 2
f 15/27/48 16/30/47 58/87/161 57/88/162
f 16/30/47 20/48/70 59/89/163 58/87/161
f 20/48/70 19/50/69 60/90/164 59/89/163
f 19/50/69 15/56/48 57/91/162 60/90/164
s off
f 57/88/165 58/87/166 62/92/167 61/93/168
f 58/87/169 59/89/170 63/94/171 62/92/172
f 59/89/173 60/90/174 64/95/175 63/94/176
f 60/90/177 57/91/178 61/96/179 64/95/180
f 61/93/181 62/92/182 66/97/183 65/98/184
f 62/92/185 63/94/186 67/99/187 66/97/188
f 63/94/189 64/95/190 68/100/191 67/99/192
f 64/95/193 61/96/194 65/101/195 68/100/196
f 65/98/197 66/97/198 70/102/199 69/103/200
f 66/97/201 67/99/202 71/45/203 70/102/204
f 67/99/205 68/100/206 72/46/207 71/45/208
f 68/100/209 65/101/210 69/104/211 72/46/212
